<?xml version="1.0" encoding="utf-8"?>
<!-- Generator: Adobe Illustrator 24.1.1, SVG Export Plug-In . SVG Version: 6.00 Build 0)  -->
<svg version="1.1" id="Layer_1" xmlns="http://www.w3.org/2000/svg" xmlns:xlink="http://www.w3.org/1999/xlink" x="0px" y="0px"
	 viewBox="0 0 200 200" style="enable-background:new 0 0 200 200;" xml:space="preserve">
<style type="text/css">
	.st0{fill:#FFFFFF;}
	.st1{fill:#B3B3B3;}
</style>
<g>
	<g>
		<g>
			<path class="st0" d="M8.99,56.02V37.07c-0.02-1.66,0.09-8.08,4.92-13.84c5.08-6.05,11.81-7.13,13.38-7.34
				c47.22,0,94.45,0,141.67,0c0.85-0.14,10.11-1.47,16.82,5.48c5.71,5.91,5.29,13.39,5.2,14.59c0,6.69,0,13.38,0,20.07H8.99z"/>
			<g>
				<path d="M11.49,56.02c0-3.78,0-7.56,0-11.34c0-3.36-0.25-6.85,0.13-10.2c0.05-0.42-0.05,0.34,0.01-0.1
					c0.03-0.18,0.06-0.37,0.09-0.55c0.06-0.34,0.13-0.68,0.2-1.02c0.21-0.93,0.48-1.85,0.81-2.74c0.7-1.89,1.77-3.71,3.08-5.24
					c2.34-2.73,5.4-4.73,8.71-5.76c3.18-1,5.87-0.68,9.25-0.68c5.32,0,10.64,0,15.96,0c21.28,0,42.57,0,63.85,0
					c10.73,0,21.45,0,32.18,0c5.32,0,10.64,0,15.96,0c2.58,0,5.36,0.28,7.92-0.09c0.44-0.07-0.61,0.03-0.33,0.04
					c0.14,0,0.29-0.04,0.43-0.05c0.45-0.04,0.9-0.07,1.35-0.08c6.53-0.19,13.18,3.07,16.02,9.6c0.62,1.44,1.02,3,1.25,4.55
					c-0.06-0.39,0.06,0.53,0.07,0.6c0.02,0.26,0.04,0.52,0.06,0.79c0.03,0.5,0.03,1,0.02,1.5c-0.12,4.31-0.03,8.63-0.03,12.95
					c0,2.61,0,5.22,0,7.83c0.83-0.83,1.67-1.67,2.5-2.5c-1.62,0-3.24,0-4.86,0c-4.41,0-8.81,0-13.22,0c-6.55,0-13.1,0-19.65,0
					c-7.96,0-15.92,0-23.87,0c-8.72,0-17.43,0-26.15,0c-8.8,0-17.6,0-26.39,0c-8.21,0-16.41,0-24.62,0c-6.97,0-13.93,0-20.9,0
					c-4.98,0-9.97,0-14.95,0c-2.36,0-4.73-0.06-7.08,0c-0.1,0-0.2,0-0.3,0c-3.22,0-3.22,5,0,5c1.62,0,3.24,0,4.86,0
					c4.41,0,8.81,0,13.22,0c6.55,0,13.1,0,19.65,0c7.96,0,15.92,0,23.87,0c8.72,0,17.43,0,26.15,0c8.8,0,17.6,0,26.39,0
					c8.21,0,16.41,0,24.62,0c6.97,0,13.93,0,20.9,0c4.98,0,9.97,0,14.95,0c2.36,0,4.73,0.06,7.08,0c0.1,0,0.2,0,0.3,0
					c1.35,0,2.5-1.15,2.5-2.5c0-5.47,0-10.93,0-16.4c0-2.98,0.16-5.92-0.33-8.87c-1.38-8.26-7.71-15.03-15.88-16.92
					c-2.52-0.58-5.19-0.81-7.76-0.52c-0.22,0.02-0.44,0.06-0.66,0.08c-0.02,0-0.6,0.03-0.45,0.03c-1.05-0.02-2.66-0.04-3.93-0.04
					c-2.83,0-5.65,0-8.48,0c-10.97,0-21.95,0-32.92,0c-22.2,0-44.4,0-66.6,0c-5.49,0-10.97,0-16.46,0c-2.74,0-5.49,0-8.23,0
					c-1.99,0-4.02-0.13-5.99,0.22c-7.71,1.38-14.38,6.78-17.41,13.98c-1.77,4.21-1.9,8.46-1.9,12.93c0,4.81,0,9.62,0,14.43
					c0,0.36,0,0.72,0,1.08C6.49,59.24,11.49,59.25,11.49,56.02z"/>
			</g>
		</g>
		<g>
			<path class="st0" d="M8.99,56.86v122.91c-0.05,1.06-0.22,7.37,4.74,12.45c5.16,5.28,11.8,5.07,12.82,5.02
				c50.29,0,100.58,0,150.87,0c0.62,0.07,6.36,0.63,10.43-3.76c3.17-3.43,3.19-7.57,3.17-8.5c0-42.7,0-85.41,0-128.11"/>
			<g>
				<path d="M6.49,56.86c0,4.12,0,8.25,0,12.37c0,9.88,0,19.77,0,29.65c0,11.92,0,23.83,0,35.75c0,10.22,0,20.44,0,30.65
					c0,4.79,0.05,9.58,0,14.38c-0.07,6.52,2.69,12.58,8.01,16.48c3.11,2.28,7.02,3.47,10.86,3.6c4.71,0.16,9.46-0.01,14.18-0.01
					c24.15,0,48.29,0,72.44,0c11.99,0,23.98,0,35.97,0c6.08,0,12.16,0,18.23,0c3.08,0,6.16,0,9.24,0c1.3,0,2.63,0.11,3.93,0.04
					c4.41-0.23,8.52-2.15,11.22-5.69c2.54-3.33,2.96-7.08,2.96-11.11c0-12.13,0-24.26,0-36.39c0-24.09,0-48.19,0-72.28
					c0-5.82,0-11.63,0-17.45c0-3.22-5-3.22-5,0c0,23.76,0,47.52,0,71.28c0,11.8,0,23.6,0,35.39c0,5.98,0,11.96,0,17.95
					c0,3.81,0.38,7-2.3,10.06c-1.25,1.43-2.87,2.39-4.7,2.88c-1.28,0.34-2.09,0.44-3.59,0.36c-5.14-0.29-10.36-0.04-15.51-0.04
					c-11.82,0-23.65,0-35.47,0c-23.73,0-47.46,0-71.19,0c-5.91,0-11.82,0-17.73,0c-4.39,0-8.87,0.27-13.25-0.02
					c-0.29-0.02-0.58-0.05-0.87-0.08c0.44,0.05-0.6-0.1-0.73-0.13c-0.94-0.19-1.88-0.44-2.78-0.79c-1.92-0.73-3.65-1.93-5.06-3.42
					c-1.42-1.5-2.49-3.32-3.12-5.29c-0.52-1.63-0.68-2.5-0.74-3.99c-0.16-3.91,0-7.87,0-11.79c0-9.35,0-18.71,0-28.06
					c0-11.68,0-23.35,0-35.03c0-10.49,0-20.98,0-31.47c0-5.67,0-11.34,0-17.02c0-0.27,0-0.54,0-0.8
					C11.49,53.64,6.49,53.64,6.49,56.86L6.49,56.86z"/>
			</g>
		</g>
	</g>
	<g>
		<g>
			<g>
				<path d="M42.64,2.9c0,8.08,0,16.16,0,24.24c0,1.14,0,2.28,0,3.42c0,3.22,5,3.22,5,0c0-8.08,0-16.16,0-24.24
					c0-1.14,0-2.28,0-3.42C47.64-0.32,42.64-0.32,42.64,2.9L42.64,2.9z"/>
			</g>
		</g>
		<g>
			<g>
				<path d="M115.2,2.7c0,8.08,0,16.16,0,24.24c0,1.14,0,2.28,0,3.42c0,3.22,5,3.22,5,0c0-8.08,0-16.16,0-24.24
					c0-1.14,0-2.28,0-3.42C120.2-0.51,115.2-0.52,115.2,2.7L115.2,2.7z"/>
			</g>
		</g>
		<g>
			<g>
				<path d="M78.92,2.9c0,8.08,0,16.16,0,24.24c0,1.14,0,2.28,0,3.42c0,3.22,5,3.22,5,0c0-8.08,0-16.16,0-24.24
					c0-1.14,0-2.28,0-3.42C83.92-0.32,78.92-0.32,78.92,2.9L78.92,2.9z"/>
			</g>
		</g>
		<g>
			<g>
				<path d="M152.36,2.7c0,8.08,0,16.16,0,24.24c0,1.14,0,2.28,0,3.42c0,3.22,5,3.22,5,0c0-8.08,0-16.16,0-24.24
					c0-1.14,0-2.28,0-3.42C157.36-0.51,152.36-0.52,152.36,2.7L152.36,2.7z"/>
			</g>
		</g>
	</g>
	<g>
		<g>
			<rect x="28.39" y="70.28" class="st1" width="28.64" height="28.64"/>
			<g>
				<path class="st1" d="M57.03,96.42c-8.36,0-16.71,0-25.07,0c-1.19,0-2.38,0-3.58,0c0.83,0.83,1.67,1.67,2.5,2.5
					c0-8.36,0-16.71,0-25.07c0-1.19,0-2.38,0-3.58c-0.83,0.83-1.67,1.67-2.5,2.5c8.36,0,16.71,0,25.07,0c1.19,0,2.38,0,3.58,0
					c-0.83-0.83-1.67-1.67-2.5-2.5c0,8.36,0,16.71,0,25.07c0,1.19,0,2.38,0,3.58c0,3.22,5,3.22,5,0c0-8.36,0-16.71,0-25.07
					c0-1.19,0-2.38,0-3.58c0-1.35-1.15-2.5-2.5-2.5c-8.36,0-16.71,0-25.07,0c-1.19,0-2.38,0-3.58,0c-1.35,0-2.5,1.15-2.5,2.5
					c0,8.36,0,16.71,0,25.07c0,1.19,0,2.38,0,3.58c0,1.35,1.15,2.5,2.5,2.5c8.36,0,16.71,0,25.07,0c1.19,0,2.38,0,3.58,0
					C60.25,101.42,60.25,96.42,57.03,96.42z"/>
			</g>
		</g>
		<g>
			<rect x="85.68" y="70.28" class="st1" width="28.64" height="28.64"/>
			<g>
				<path class="st1" d="M114.32,96.42c-8.36,0-16.71,0-25.07,0c-1.19,0-2.38,0-3.58,0c0.83,0.83,1.67,1.67,2.5,2.5
					c0-8.36,0-16.71,0-25.07c0-1.19,0-2.38,0-3.58c-0.83,0.83-1.67,1.67-2.5,2.5c8.36,0,16.71,0,25.07,0c1.19,0,2.38,0,3.58,0
					c-0.83-0.83-1.67-1.67-2.5-2.5c0,8.36,0,16.71,0,25.07c0,1.19,0,2.38,0,3.58c0,3.22,5,3.22,5,0c0-8.36,0-16.71,0-25.07
					c0-1.19,0-2.38,0-3.58c0-1.35-1.15-2.5-2.5-2.5c-8.36,0-16.71,0-25.07,0c-1.19,0-2.38,0-3.58,0c-1.35,0-2.5,1.15-2.5,2.5
					c0,8.36,0,16.71,0,25.07c0,1.19,0,2.38,0,3.58c0,1.35,1.15,2.5,2.5,2.5c8.36,0,16.71,0,25.07,0c1.19,0,2.38,0,3.58,0
					C117.54,101.42,117.54,96.42,114.32,96.42z"/>
			</g>
		</g>
		<g>
			<rect x="142.97" y="70.28" class="st1" width="28.64" height="28.64"/>
			<g>
				<path class="st1" d="M171.61,96.42c-8.36,0-16.71,0-25.07,0c-1.19,0-2.38,0-3.58,0c0.83,0.83,1.67,1.67,2.5,2.5
					c0-8.36,0-16.71,0-25.07c0-1.19,0-2.38,0-3.58c-0.83,0.83-1.67,1.67-2.5,2.5c8.36,0,16.71,0,25.07,0c1.19,0,2.38,0,3.58,0
					c-0.83-0.83-1.67-1.67-2.5-2.5c0,8.36,0,16.71,0,25.07c0,1.19,0,2.38,0,3.58c0,3.22,5,3.22,5,0c0-8.36,0-16.71,0-25.07
					c0-1.19,0-2.38,0-3.58c0-1.35-1.15-2.5-2.5-2.5c-8.36,0-16.71,0-25.07,0c-1.19,0-2.38,0-3.58,0c-1.35,0-2.5,1.15-2.5,2.5
					c0,8.36,0,16.71,0,25.07c0,1.19,0,2.38,0,3.58c0,1.35,1.15,2.5,2.5,2.5c8.36,0,16.71,0,25.07,0c1.19,0,2.38,0,3.58,0
					C174.83,101.42,174.83,96.42,171.61,96.42z"/>
			</g>
		</g>
		<g>
			<rect x="28.39" y="127.57" class="st1" width="28.64" height="28.64"/>
			<g>
				<path class="st1" d="M57.03,153.71c-8.36,0-16.71,0-25.07,0c-1.19,0-2.38,0-3.58,0c0.83,0.83,1.67,1.67,2.5,2.5
					c0-8.36,0-16.71,0-25.07c0-1.19,0-2.38,0-3.58c-0.83,0.83-1.67,1.67-2.5,2.5c8.36,0,16.71,0,25.07,0c1.19,0,2.38,0,3.58,0
					c-0.83-0.83-1.67-1.67-2.5-2.5c0,8.36,0,16.71,0,25.07c0,1.19,0,2.38,0,3.58c0,3.22,5,3.22,5,0c0-8.36,0-16.71,0-25.07
					c0-1.19,0-2.38,0-3.58c0-1.35-1.15-2.5-2.5-2.5c-8.36,0-16.71,0-25.07,0c-1.19,0-2.38,0-3.58,0c-1.35,0-2.5,1.15-2.5,2.5
					c0,8.36,0,16.71,0,25.07c0,1.19,0,2.38,0,3.58c0,1.35,1.15,2.5,2.5,2.5c8.36,0,16.71,0,25.07,0c1.19,0,2.38,0,3.58,0
					C60.25,158.71,60.25,153.71,57.03,153.71z"/>
			</g>
		</g>
		<g>
			<rect x="85.68" y="127.57" class="st1" width="28.64" height="28.64"/>
			<g>
				<path class="st1" d="M114.32,153.71c-8.36,0-16.71,0-25.07,0c-1.19,0-2.38,0-3.58,0c0.83,0.83,1.67,1.67,2.5,2.5
					c0-8.36,0-16.71,0-25.07c0-1.19,0-2.38,0-3.58c-0.83,0.83-1.67,1.67-2.5,2.5c8.36,0,16.71,0,25.07,0c1.19,0,2.38,0,3.58,0
					c-0.83-0.83-1.67-1.67-2.5-2.5c0,8.36,0,16.71,0,25.07c0,1.19,0,2.38,0,3.58c0,3.22,5,3.22,5,0c0-8.36,0-16.71,0-25.07
					c0-1.19,0-2.38,0-3.58c0-1.35-1.15-2.5-2.5-2.5c-8.36,0-16.71,0-25.07,0c-1.19,0-2.38,0-3.58,0c-1.35,0-2.5,1.15-2.5,2.5
					c0,8.36,0,16.71,0,25.07c0,1.19,0,2.38,0,3.58c0,1.35,1.15,2.5,2.5,2.5c8.36,0,16.71,0,25.07,0c1.19,0,2.38,0,3.58,0
					C117.54,158.71,117.54,153.71,114.32,153.71z"/>
			</g>
		</g>
		<g>
			<rect x="142.97" y="127.57" class="st1" width="28.64" height="28.64"/>
			<g>
				<path class="st1" d="M171.61,153.71c-8.36,0-16.71,0-25.07,0c-1.19,0-2.38,0-3.58,0c0.83,0.83,1.67,1.67,2.5,2.5
					c0-8.36,0-16.71,0-25.07c0-1.19,0-2.38,0-3.58c-0.83,0.83-1.67,1.67-2.5,2.5c8.36,0,16.71,0,25.07,0c1.19,0,2.38,0,3.58,0
					c-0.83-0.83-1.67-1.67-2.5-2.5c0,8.36,0,16.71,0,25.07c0,1.19,0,2.38,0,3.58c0,3.22,5,3.22,5,0c0-8.36,0-16.71,0-25.07
					c0-1.19,0-2.38,0-3.58c0-1.35-1.15-2.5-2.5-2.5c-8.36,0-16.71,0-25.07,0c-1.19,0-2.38,0-3.58,0c-1.35,0-2.5,1.15-2.5,2.5
					c0,8.36,0,16.71,0,25.07c0,1.19,0,2.38,0,3.58c0,1.35,1.15,2.5,2.5,2.5c8.36,0,16.71,0,25.07,0c1.19,0,2.38,0,3.58,0
					C174.83,158.71,174.83,153.71,171.61,153.71z"/>
			</g>
		</g>
	</g>
</g>
</svg>
